<svg preserveAspectRatio="none" overflow="visible" style="display: block;" width="38.4" height="38.4" viewBox="0 0 38.4 38.4" fill="none" xmlns="http://www.w3.org/2000/svg">
<g id="Frame">
<path id="Vector" d="M35.2002 33.6V30.4C35.2002 27.4179 33.1605 24.9121 30.4002 24.2016M24.8002 5.26519C27.1456 6.21462 28.8002 8.51407 28.8002 11.2C28.8002 13.8859 27.1456 16.1854 24.8002 17.1347M27.2002 33.6C27.2002 30.6179 27.2002 29.127 26.713 27.9509C26.0634 26.3827 24.8175 25.1368 23.2493 24.4872C22.0732 24 20.5823 24 17.6002 24H12.8002C9.81816 24 8.32716 24 7.15103 24.4872C5.58284 25.1368 4.33693 26.3827 3.68736 27.9509C3.2002 29.127 3.2002 30.6179 3.2002 33.6M21.6002 11.2C21.6002 14.7346 18.7348 17.6 15.2002 17.6C11.6656 17.6 8.8002 14.7346 8.8002 11.2C8.8002 7.66535 11.6656 4.79998 15.2002 4.79998C18.7348 4.79998 21.6002 7.66535 21.6002 11.2Z" stroke="#1C5F85" stroke-width="1.6" stroke-linecap="round" stroke-linejoin="round"/>
</g>
</svg>
